<?xml version="1.0" encoding="UTF-8" standalone="no"?>
<!DOCTYPE svg PUBLIC "-//W3C//DTD SVG 1.1//EN" "http://www.w3.org/Graphics/SVG/1.1/DTD/svg11.dtd">
<!-- Created with Vectornator (http://vectornator.io/) -->
<svg height="100%" stroke-miterlimit="10" style="fill-rule:nonzero;clip-rule:evenodd;stroke-linecap:round;stroke-linejoin:round;" version="1.1" viewBox="0 0 512 512" width="100%" xml:space="preserve" xmlns="http://www.w3.org/2000/svg" xmlns:vectornator="http://vectornator.io" xmlns:xlink="http://www.w3.org/1999/xlink">
<defs/>
<g id="Capa-1" vectornator:layerName="Capa 1">
<g opacity="1" vectornator:layerName="Grupo 2">
<g opacity="1" vectornator:layerName="Grupo 1">
<path d="M91.6883 247.916C91.6883 245.367 93.754 243.302 96.3023 243.302C98.8505 243.302 100.916 245.367 100.916 247.916C100.916 249.676 99.9303 251.206 98.4805 251.984C97.8317 252.332 97.0901 252.53 96.3023 252.53C93.754 252.53 91.6883 250.464 91.6883 247.916Z" fill="none" opacity="1" stroke="#004d80" stroke-linecap="butt" stroke-linejoin="round" stroke-width="1.84559" vectornator:layerName="Óvalo 9"/>
<g opacity="1" vectornator:layerName="Curva 41">
<path d="M135.094 227.438C130.858 227.557 126.61 227.596 122.375 227.719C118.014 227.845 113.681 228.122 109.344 228.594C107.094 228.838 104.83 229.023 102.594 229.375C88.3999 231.611 72.5125 236.461 64.375 249.281C62.5929 252.089 61.1878 255.207 60.1875 258.375C58.6321 263.301 58.1517 268.42 58.125 273.562C58.2123 273.851 58.6498 273.978 59.0938 273.844C59.5377 273.709 59.8373 273.351 59.75 273.062C59.7758 268.034 60.2293 263.067 61.75 258.25C62.5961 255.57 63.7521 253.058 65.3125 250.719C66.4915 248.951 67.8524 247.295 69.375 245.812C76.0553 239.307 85.2937 236.333 94.3438 235.062C97.1167 234.673 99.8963 234.478 102.688 234.281C105.294 234.097 107.888 234.037 110.5 234.031C113.56 234.025 116.596 233.978 119.656 234C123.85 234.03 128.056 234.136 132.25 234.125C133.447 234.633 135.062 233.53 135.844 231.688C136.625 229.845 136.291 227.945 135.094 227.438Z" fill="#004d80" stroke="none"/>
</g>
<path d="M83.3831 294.782C83.3831 292.234 85.4489 290.168 87.9971 290.168C90.5453 290.168 92.6111 292.234 92.6111 294.782C92.6111 296.543 91.6252 298.073 90.1754 298.851C89.5266 299.199 88.7849 299.396 87.9971 299.396C85.4489 299.396 83.3831 297.331 83.3831 294.782Z" fill="#004d80" fill-rule="nonzero" opacity="1" stroke="#004d80" stroke-linecap="butt" stroke-linejoin="round" stroke-width="3.69118" vectornator:layerName="Óvalo 10"/>
<path d="M89.3748 262.382C89.3748 259.834 91.4406 257.768 93.9888 257.768C96.537 257.768 98.6028 259.834 98.6028 262.382C98.6028 264.142 97.6169 265.672 96.1671 266.45C95.5183 266.798 94.7766 266.996 93.9888 266.996C91.4406 266.996 89.3748 264.93 89.3748 262.382Z" fill="none" opacity="1" stroke="#004d80" stroke-linecap="butt" stroke-linejoin="round" stroke-width="2.76839" vectornator:layerName="Óvalo 11"/>
<path d="M86.4785 277.999C86.4785 275.451 88.5442 273.385 91.0924 273.385C93.6407 273.385 95.7064 275.451 95.7064 277.999C95.7064 279.76 94.7205 281.29 93.2707 282.068C92.6219 282.416 91.8802 282.613 91.0924 282.613C88.5442 282.613 86.4785 280.547 86.4785 277.999Z" fill="none" opacity="1" stroke="#004d80" stroke-linecap="butt" stroke-linejoin="round" stroke-width="3.69118" vectornator:layerName="Óvalo 12"/>
</g>
<g fill="#004d80" opacity="1" stroke="none" vectornator:layerName="Texto 1">
<path d="M199.063 232.792L199.063 240.385L193.204 240.385L193.204 270.737L183.336 270.737L183.336 240.385L177.5 240.385L177.5 232.792L199.063 232.792Z"/>
<path d="M201.313 232.792L217.766 232.792L217.766 240.385L211.18 240.385L211.18 247.581L217.344 247.581L217.344 254.799L211.18 254.799L211.18 263.143L218.422 263.143L218.422 270.737L201.313 270.737L201.313 232.792Z"/>
<path d="M244.297 249.338L234.43 249.338L234.43 242.729C234.43 240.807 234.325 239.608 234.114 239.131C233.903 238.655 233.438 238.417 232.719 238.417C231.907 238.417 231.391 238.706 231.172 239.284C230.954 239.862 230.844 241.112 230.844 243.034L230.844 260.659C230.844 262.502 230.954 263.706 231.172 264.268C231.391 264.831 231.883 265.112 232.649 265.112C233.383 265.112 233.864 264.831 234.09 264.268C234.317 263.706 234.43 262.385 234.43 260.307L234.43 255.549L244.297 255.549L244.297 257.026C244.297 260.948 244.02 263.729 243.465 265.37C242.911 267.01 241.684 268.448 239.786 269.682C237.887 270.917 235.547 271.534 232.766 271.534C229.875 271.534 227.493 271.01 225.618 269.963C223.743 268.917 222.5 267.467 221.891 265.616C221.282 263.764 220.977 260.979 220.977 257.26L220.977 246.174C220.977 243.44 221.071 241.389 221.258 240.022C221.446 238.655 222.004 237.338 222.934 236.073C223.864 234.807 225.153 233.811 226.801 233.085C228.45 232.358 230.344 231.995 232.485 231.995C235.391 231.995 237.79 232.557 239.68 233.682C241.571 234.807 242.813 236.21 243.407 237.889C244 239.569 244.297 242.182 244.297 245.729L244.297 249.338Z"/>
<path d="M270.524 232.792L270.524 270.737L260.657 270.737L260.657 254.799L257.704 254.799L257.704 270.737L247.836 270.737L247.836 232.792L257.704 232.792L257.704 246.362L260.657 246.362L260.657 232.792L270.524 232.792Z"/>
<path d="M297.524 249.338L287.657 249.338L287.657 242.729C287.657 240.807 287.551 239.608 287.34 239.131C287.129 238.655 286.665 238.417 285.946 238.417C285.133 238.417 284.618 238.706 284.399 239.284C284.18 239.862 284.071 241.112 284.071 243.034L284.071 260.659C284.071 262.502 284.18 263.706 284.399 264.268C284.618 264.831 285.11 265.112 285.875 265.112C286.61 265.112 287.09 264.831 287.317 264.268C287.543 263.706 287.657 262.385 287.657 260.307L287.657 255.549L297.524 255.549L297.524 257.026C297.524 260.948 297.247 263.729 296.692 265.37C296.137 267.01 294.911 268.448 293.012 269.682C291.114 270.917 288.774 271.534 285.993 271.534C283.102 271.534 280.719 271.01 278.844 269.963C276.969 268.917 275.727 267.467 275.118 265.616C274.508 263.764 274.204 260.979 274.204 257.26L274.204 246.174C274.204 243.44 274.297 241.389 274.485 240.022C274.672 238.655 275.231 237.338 276.161 236.073C277.09 234.807 278.379 233.811 280.028 233.085C281.676 232.358 283.571 231.995 285.711 231.995C288.618 231.995 291.016 232.557 292.907 233.682C294.797 234.807 296.04 236.21 296.633 237.889C297.227 239.569 297.524 242.182 297.524 245.729L297.524 249.338Z"/>
<path d="M323.61 255.01C323.61 258.823 323.52 261.522 323.34 263.108C323.161 264.694 322.598 266.143 321.653 267.456C320.707 268.768 319.43 269.776 317.821 270.479C316.211 271.182 314.336 271.534 312.196 271.534C310.165 271.534 308.34 271.202 306.723 270.538C305.106 269.874 303.805 268.877 302.821 267.549C301.836 266.221 301.25 264.776 301.063 263.213C300.875 261.651 300.782 258.917 300.782 255.01L300.782 248.518C300.782 244.706 300.872 242.006 301.051 240.42C301.231 238.835 301.793 237.385 302.739 236.073C303.684 234.76 304.961 233.752 306.571 233.049C308.18 232.346 310.055 231.995 312.196 231.995C314.227 231.995 316.051 232.327 317.668 232.991C319.286 233.655 320.586 234.651 321.571 235.979C322.555 237.307 323.141 238.752 323.329 240.315C323.516 241.877 323.61 244.612 323.61 248.518L323.61 255.01ZM313.743 242.542C313.743 240.776 313.645 239.647 313.45 239.155C313.254 238.663 312.852 238.417 312.243 238.417C311.727 238.417 311.332 238.616 311.059 239.014C310.786 239.413 310.649 240.588 310.649 242.542L310.649 260.26C310.649 262.463 310.739 263.823 310.918 264.338C311.098 264.854 311.516 265.112 312.172 265.112C312.844 265.112 313.274 264.815 313.461 264.221C313.649 263.627 313.743 262.213 313.743 259.979L313.743 242.542Z"/>
<path d="M348.196 244.276L339.032 244.276L339.032 241.463C339.032 240.151 338.915 239.315 338.68 238.956C338.446 238.596 338.055 238.417 337.508 238.417C336.915 238.417 336.465 238.659 336.161 239.143C335.856 239.627 335.704 240.362 335.704 241.346C335.704 242.612 335.875 243.565 336.219 244.206C336.547 244.846 337.477 245.62 339.008 246.526C343.399 249.135 346.165 251.276 347.305 252.948C348.446 254.62 349.016 257.315 349.016 261.034C349.016 263.737 348.7 265.729 348.067 267.01C347.434 268.292 346.211 269.366 344.399 270.233C342.586 271.1 340.477 271.534 338.071 271.534C335.43 271.534 333.176 271.034 331.309 270.034C329.442 269.034 328.219 267.76 327.641 266.213C327.063 264.667 326.774 262.471 326.774 259.627L326.774 257.143L335.938 257.143L335.938 261.76C335.938 263.182 336.067 264.096 336.325 264.502C336.582 264.909 337.04 265.112 337.696 265.112C338.352 265.112 338.84 264.854 339.161 264.338C339.481 263.823 339.641 263.057 339.641 262.042C339.641 259.807 339.336 258.346 338.727 257.659C338.102 256.971 336.563 255.823 334.11 254.213C331.657 252.588 330.032 251.409 329.235 250.674C328.438 249.94 327.778 248.924 327.254 247.627C326.731 246.331 326.469 244.674 326.469 242.659C326.469 239.752 326.84 237.627 327.582 236.284C328.325 234.94 329.524 233.889 331.18 233.131C332.836 232.374 334.836 231.995 337.18 231.995C339.743 231.995 341.926 232.409 343.731 233.237C345.536 234.065 346.731 235.108 347.317 236.366C347.903 237.624 348.196 239.76 348.196 242.776L348.196 244.276Z"/>
<path d="M352.11 232.792L368.563 232.792L368.563 240.385L361.977 240.385L361.977 247.581L368.141 247.581L368.141 254.799L361.977 254.799L361.977 263.143L369.219 263.143L369.219 270.737L352.11 270.737L352.11 232.792Z"/>
<path d="M372.055 232.792L379.04 232.792C383.696 232.792 386.848 232.971 388.497 233.331C390.145 233.69 391.489 234.608 392.528 236.085C393.567 237.561 394.086 239.917 394.086 243.151C394.086 246.104 393.719 248.088 392.985 249.104C392.25 250.12 390.805 250.729 388.649 250.932C390.602 251.417 391.915 252.065 392.586 252.877C393.258 253.69 393.676 254.436 393.84 255.116C394.004 255.795 394.086 257.667 394.086 260.729L394.086 270.737L384.922 270.737L384.922 258.127C384.922 256.096 384.762 254.838 384.442 254.354C384.122 253.87 383.282 253.627 381.922 253.627L381.922 270.737L372.055 270.737L372.055 232.792ZM381.922 239.284L381.922 247.721C383.032 247.721 383.809 247.569 384.254 247.264C384.7 246.96 384.922 245.971 384.922 244.299L384.922 242.213C384.922 241.01 384.707 240.221 384.278 239.846C383.848 239.471 383.063 239.284 381.922 239.284Z"/>
<path d="M421.344 232.792L416.329 270.737L401.352 270.737L395.657 232.792L406.063 232.792C407.266 243.245 408.125 252.081 408.641 259.299C409.157 252.002 409.696 245.518 410.258 239.846L410.938 232.792L421.344 232.792Z"/>
<path d="M423.032 232.792L439.485 232.792L439.485 240.385L432.899 240.385L432.899 247.581L439.063 247.581L439.063 254.799L432.899 254.799L432.899 263.143L440.141 263.143L440.141 270.737L423.032 270.737L423.032 232.792Z"/>
</g>
<g fill="#004d80" opacity="1" stroke="none" vectornator:layerName="Texto 2">
<path d="M147.574 284.514L143.976 296.35C143.75 297.092 143.636 297.557 143.636 297.744C143.636 298.135 143.806 298.418 144.146 298.594C144.486 298.769 144.867 298.857 145.289 298.857L145.711 298.857L145.546 299.396L138.738 299.396L138.902 298.857L139.254 298.857C139.746 298.857 140.166 298.773 140.513 298.605C140.861 298.437 141.107 298.23 141.252 297.984C141.396 297.738 141.597 297.201 141.855 296.373L145.511 284.373C144.214 284.256 143.113 284.197 142.207 284.197C141.222 284.197 140.484 284.279 139.992 284.443C139.5 284.607 139.254 284.853 139.254 285.182C139.254 285.307 139.296 285.482 139.382 285.709C139.461 285.928 139.5 286.092 139.5 286.201C139.5 286.412 139.423 286.594 139.271 286.746C139.119 286.898 138.921 286.975 138.679 286.975C138.375 286.975 138.138 286.857 137.97 286.623C137.802 286.389 137.718 286.127 137.718 285.838C137.718 285.213 138.072 284.668 138.779 284.203C139.486 283.738 140.73 283.506 142.511 283.506C143.425 283.506 145.16 283.611 147.714 283.822C149.543 283.978 150.914 284.057 151.828 284.057C152.703 284.057 153.187 283.826 153.281 283.365C153.343 283.037 153.507 282.873 153.773 282.873C154.148 282.873 154.336 283.072 154.336 283.471C154.336 284.322 153.433 284.748 151.629 284.748C150.769 284.748 149.418 284.67 147.574 284.514Z"/>
<path d="M153.937 296.408L154.5 296.408C153.507 298.619 152.234 299.725 150.679 299.725C150.039 299.725 149.517 299.5 149.115 299.051C148.713 298.601 148.511 297.994 148.511 297.228C148.511 296.26 148.771 295.166 149.291 293.947C149.81 292.728 150.548 291.678 151.505 290.795C152.463 289.912 153.296 289.471 154.007 289.471C154.445 289.471 154.777 289.609 155.004 289.887C155.23 290.164 155.343 290.51 155.343 290.924C155.343 291.768 154.921 292.578 154.078 293.355C153.234 294.133 151.968 294.881 150.281 295.6C150.062 296.279 149.953 296.924 149.953 297.533C149.953 298.033 150.05 298.408 150.246 298.658C150.441 298.908 150.73 299.033 151.113 299.033C152.183 299.033 153.125 298.158 153.937 296.408ZM150.457 295.002C151.464 294.549 152.371 293.924 153.175 293.127C153.98 292.33 154.382 291.607 154.382 290.959C154.382 290.662 154.322 290.441 154.201 290.297C154.08 290.152 153.898 290.08 153.656 290.08C153.187 290.08 152.634 290.535 151.998 291.445C151.361 292.355 150.847 293.541 150.457 295.002Z"/>
<path d="M161.332 296.068L161.8 296.068C161.418 297.185 160.882 298.074 160.195 298.734C159.507 299.394 158.793 299.725 158.05 299.725C157.425 299.725 156.92 299.488 156.533 299.016C156.146 298.543 155.953 297.877 155.953 297.018C155.953 296.01 156.213 294.91 156.732 293.719C157.252 292.527 157.982 291.521 158.923 290.701C159.865 289.881 160.695 289.471 161.414 289.471C161.828 289.471 162.179 289.603 162.468 289.869C162.757 290.135 162.902 290.455 162.902 290.83C162.902 291.385 162.679 291.662 162.234 291.662C161.781 291.662 161.543 291.353 161.519 290.736C161.504 290.275 161.328 290.045 160.992 290.045C160.554 290.045 160.046 290.449 159.468 291.258C158.89 292.066 158.394 293.144 157.98 294.492C157.566 295.84 157.359 296.865 157.359 297.568C157.359 298.014 157.472 298.369 157.699 298.635C157.925 298.9 158.199 299.033 158.519 299.033C158.98 299.033 159.482 298.766 160.025 298.23C160.568 297.695 161.004 296.975 161.332 296.068Z"/>
<path d="M164.214 299.572L162.82 299.572L166.933 286.037C167.168 285.271 167.285 284.826 167.285 284.701C167.285 284.521 167.232 284.393 167.127 284.314C167.021 284.236 166.761 284.197 166.347 284.197L165.972 284.197L166.113 283.705C167.355 283.674 168.277 283.533 168.879 283.283L169.171 283.283L166.511 292.025C167.918 290.322 169.199 289.471 170.355 289.471C170.879 289.471 171.269 289.58 171.527 289.799C171.785 290.018 171.914 290.35 171.914 290.795C171.914 291.146 171.683 291.982 171.222 293.303L170.191 296.244C169.793 297.393 169.593 298.057 169.593 298.236C169.593 298.432 169.632 298.58 169.711 298.682C169.789 298.783 169.906 298.834 170.062 298.834C170.343 298.834 170.66 298.666 171.011 298.33C171.363 297.994 171.664 297.576 171.914 297.076L172.488 297.076C172.089 297.873 171.617 298.514 171.07 298.998C170.523 299.482 170.004 299.725 169.511 299.725C169.152 299.725 168.843 299.592 168.586 299.326C168.328 299.06 168.199 298.709 168.199 298.271C168.199 297.803 168.418 296.971 168.855 295.775L169.851 293.068C170.312 291.826 170.543 291.045 170.543 290.725C170.543 290.529 170.49 290.383 170.384 290.285C170.279 290.187 170.117 290.139 169.898 290.139C169.546 290.139 169.132 290.281 168.656 290.566C168.179 290.851 167.683 291.328 167.168 291.996C166.652 292.664 166.275 293.291 166.037 293.877C165.798 294.463 165.488 295.396 165.105 296.678L164.214 299.572Z"/>
<path d="M182.027 297.193L182.625 297.193C182.156 298.037 181.677 298.67 181.189 299.092C180.701 299.514 180.203 299.725 179.695 299.725C179.343 299.725 179.041 299.617 178.787 299.402C178.533 299.187 178.406 298.869 178.406 298.447C178.406 298.096 178.586 297.4 178.945 296.361L180.199 292.787C180.535 291.81 180.703 291.178 180.703 290.889C180.703 290.631 180.646 290.439 180.533 290.314C180.42 290.189 180.246 290.127 180.011 290.127C179.418 290.127 178.642 290.824 177.685 292.219C176.728 293.613 175.906 295.439 175.218 297.697L174.644 299.572L173.214 299.572L175.277 292.916C175.652 291.689 175.839 290.986 175.839 290.807C175.839 290.674 175.816 290.576 175.769 290.514C175.722 290.451 175.648 290.42 175.546 290.42C175.086 290.42 174.539 290.99 173.906 292.131L173.367 292.131C174.343 290.357 175.269 289.471 176.144 289.471C176.449 289.471 176.677 289.562 176.83 289.746C176.982 289.93 177.058 290.209 177.058 290.584C177.058 291.256 176.796 292.295 176.273 293.701C177.687 290.881 179.062 289.471 180.398 289.471C180.828 289.471 181.203 289.613 181.523 289.898C181.843 290.184 182.004 290.6 182.004 291.146C182.004 291.498 181.843 292.154 181.523 293.115L180.269 296.853C179.933 297.861 179.765 298.424 179.765 298.541C179.765 298.689 179.802 298.801 179.877 298.875C179.951 298.949 180.058 298.986 180.199 298.986C180.464 298.986 180.75 298.836 181.054 298.535C181.359 298.234 181.683 297.787 182.027 297.193Z"/>
<path d="M183.785 296.314C183.785 295.377 184.004 294.355 184.441 293.25C184.879 292.144 185.504 291.248 186.316 290.56C187.129 289.873 187.918 289.529 188.683 289.529C189.379 289.529 189.951 289.824 190.4 290.414C190.849 291.004 191.074 291.803 191.074 292.81C191.074 294.029 190.824 295.185 190.324 296.279C189.824 297.373 189.197 298.211 188.443 298.793C187.689 299.375 186.949 299.666 186.222 299.666C185.574 299.666 185.005 299.416 184.517 298.916C184.029 298.416 183.785 297.549 183.785 296.314ZM185.039 297.662C185.039 298.084 185.148 298.443 185.367 298.74C185.586 299.037 185.886 299.185 186.269 299.185C187.316 299.185 188.177 298.193 188.853 296.209C189.529 294.225 189.867 292.709 189.867 291.662C189.867 291.123 189.763 290.719 189.556 290.449C189.349 290.18 189.039 290.045 188.625 290.045C187.648 290.045 186.806 290.965 186.099 292.805C185.392 294.644 185.039 296.264 185.039 297.662Z"/>
<path d="M196.828 296.584L197.343 296.584C196.546 298.678 195.523 299.725 194.273 299.725C193.843 299.725 193.5 299.582 193.242 299.297C192.984 299.012 192.855 298.654 192.855 298.225C192.855 297.803 193.109 296.76 193.617 295.096L196.359 286.049C196.593 285.283 196.711 284.838 196.711 284.713C196.711 284.525 196.658 284.393 196.552 284.314C196.447 284.236 196.183 284.197 195.761 284.197L195.304 284.197L195.457 283.705C196.746 283.682 197.695 283.541 198.304 283.283L198.597 283.283L194.824 295.705C194.769 295.9 194.656 296.256 194.484 296.771C194.257 297.451 194.144 297.967 194.144 298.318C194.144 298.553 194.189 298.728 194.279 298.846C194.369 298.963 194.504 299.021 194.683 299.021C194.949 299.021 195.281 298.838 195.679 298.471C196.078 298.103 196.461 297.475 196.828 296.584Z"/>
<path d="M198.293 296.314C198.293 295.377 198.511 294.355 198.949 293.25C199.386 292.144 200.011 291.248 200.824 290.56C201.636 289.873 202.425 289.529 203.191 289.529C203.886 289.529 204.459 289.824 204.908 290.414C205.357 291.004 205.582 291.803 205.582 292.81C205.582 294.029 205.332 295.185 204.832 296.279C204.332 297.373 203.705 298.211 202.951 298.793C202.197 299.375 201.457 299.666 200.73 299.666C200.082 299.666 199.513 299.416 199.025 298.916C198.537 298.416 198.293 297.549 198.293 296.314ZM199.546 297.662C199.546 298.084 199.656 298.443 199.875 298.74C200.093 299.037 200.394 299.185 200.777 299.185C201.824 299.185 202.685 298.193 203.361 296.209C204.037 294.225 204.375 292.709 204.375 291.662C204.375 291.123 204.271 290.719 204.064 290.449C203.857 290.18 203.546 290.045 203.132 290.045C202.156 290.045 201.314 290.965 200.607 292.805C199.9 294.644 199.546 296.264 199.546 297.662Z"/>
<path d="M209.168 296.584C208.66 296.303 208.279 295.937 208.025 295.488C207.771 295.039 207.644 294.502 207.644 293.877C207.644 292.736 208.05 291.719 208.863 290.824C209.675 289.93 210.593 289.482 211.617 289.482C211.937 289.482 212.236 289.533 212.513 289.635C212.791 289.736 213.043 289.893 213.269 290.103C213.793 289.674 214.226 289.459 214.57 289.459C214.851 289.459 215.082 289.539 215.261 289.699C215.441 289.859 215.531 290.06 215.531 290.303C215.531 290.678 215.351 290.865 214.992 290.865C214.789 290.865 214.589 290.732 214.394 290.467C214.269 290.295 214.144 290.209 214.019 290.209C213.886 290.209 213.75 290.307 213.609 290.502C213.921 291.018 214.078 291.631 214.078 292.342C214.078 293.693 213.683 294.76 212.894 295.541C212.097 296.322 211.129 296.787 209.988 296.935C208.293 297.154 207.445 297.607 207.445 298.295C207.445 298.514 207.543 298.693 207.738 298.834C207.933 298.975 208.343 299.111 208.968 299.244C210.054 299.486 210.941 299.705 211.629 299.9C212.316 300.096 212.826 300.383 213.158 300.762C213.49 301.141 213.656 301.588 213.656 302.103C213.656 302.9 213.25 303.6 212.437 304.201C211.625 304.803 210.468 305.103 208.968 305.103C207.554 305.103 206.453 304.873 205.664 304.412C204.875 303.951 204.48 303.377 204.48 302.689C204.48 302.182 204.671 301.754 205.054 301.406C205.437 301.059 205.765 300.885 206.039 300.885C206.312 300.885 206.449 300.986 206.449 301.189C206.449 301.299 206.355 301.451 206.168 301.646C205.847 301.99 205.687 302.326 205.687 302.654C205.687 303.162 205.945 303.611 206.461 304.002C206.976 304.393 207.765 304.588 208.828 304.588C209.968 304.588 210.834 304.393 211.423 304.002C212.013 303.611 212.308 303.154 212.308 302.631C212.308 302.217 212.101 301.881 211.687 301.623C211.273 301.365 210.375 301.076 208.992 300.756C207.789 300.475 207.043 300.182 206.754 299.877C206.457 299.58 206.308 299.256 206.308 298.904C206.308 298.412 206.558 297.945 207.058 297.504C207.558 297.062 208.261 296.756 209.168 296.584ZM208.921 294.932C208.921 295.369 209.045 295.721 209.291 295.986C209.537 296.252 209.843 296.385 210.211 296.385C210.64 296.385 211.025 296.213 211.365 295.869C211.705 295.525 212.037 294.889 212.361 293.959C212.685 293.029 212.847 292.236 212.847 291.58C212.847 291.041 212.752 290.637 212.56 290.367C212.369 290.098 212.082 289.963 211.699 289.963C211.011 289.963 210.377 290.531 209.795 291.668C209.213 292.805 208.921 293.893 208.921 294.932Z"/>
<path d="M217.3 292.646L216.808 292.646C216.902 291.537 217.146 290.73 217.541 290.226C217.935 289.723 218.359 289.471 218.812 289.471C219.39 289.471 219.853 289.824 220.201 290.531C220.548 291.238 220.722 292.314 220.722 293.76C220.722 295.643 220.507 297.365 220.078 298.928C220.843 298.092 221.591 297.029 222.322 295.74C223.052 294.451 223.418 293.353 223.418 292.447C223.418 292.018 223.293 291.592 223.043 291.17C222.793 290.756 222.668 290.443 222.668 290.232C222.668 290.029 222.728 289.851 222.849 289.699C222.97 289.547 223.117 289.471 223.289 289.471C223.57 289.471 223.8 289.631 223.98 289.951C224.16 290.271 224.25 290.744 224.25 291.369C224.25 292.307 223.963 293.449 223.388 294.797C222.814 296.144 221.972 297.48 220.863 298.805C219.754 300.129 218.65 301.324 217.552 302.391C216.455 303.457 215.513 304.199 214.728 304.617C213.943 305.035 213.164 305.244 212.39 305.244C211.398 305.244 210.902 304.959 210.902 304.389C210.902 304.154 211.007 303.969 211.218 303.832C211.429 303.695 211.652 303.627 211.886 303.627C212.066 303.627 212.347 303.678 212.73 303.779C213.23 303.92 213.64 303.99 213.961 303.99C214.429 303.99 214.888 303.859 215.338 303.598C215.787 303.336 216.341 302.883 217.002 302.238C217.662 301.594 218.125 301.023 218.39 300.527C218.656 300.031 218.892 299.158 219.099 297.908C219.306 296.658 219.41 295.314 219.41 293.877C219.41 292.783 219.308 291.939 219.105 291.346C218.902 290.752 218.652 290.455 218.355 290.455C217.785 290.455 217.433 291.185 217.3 292.646Z"/>
<path d="M239.004 289.646L240.41 289.646L238.324 296.514C238.019 297.506 237.867 298.107 237.867 298.318C237.867 298.475 237.902 298.594 237.972 298.676C238.043 298.758 238.148 298.799 238.289 298.799C238.828 298.799 239.449 298.182 240.152 296.947L240.644 296.947C240.339 297.65 239.904 298.289 239.338 298.863C238.771 299.437 238.25 299.725 237.773 299.725C237.406 299.725 237.125 299.588 236.929 299.314C236.734 299.041 236.636 298.705 236.636 298.307C236.636 297.986 236.714 297.568 236.871 297.053C236.519 297.654 236.009 298.25 235.341 298.84C234.673 299.43 234.046 299.725 233.461 299.725C232.914 299.725 232.443 299.492 232.048 299.027C231.654 298.562 231.457 297.935 231.457 297.146C231.457 296.084 231.761 294.945 232.371 293.73C232.98 292.516 233.775 291.502 234.755 290.689C235.736 289.877 236.574 289.471 237.269 289.471C237.675 289.471 237.998 289.568 238.236 289.764C238.474 289.959 238.632 290.252 238.711 290.643L239.004 289.646ZM232.875 297.498C232.875 298.014 232.953 298.402 233.109 298.664C233.265 298.926 233.5 299.057 233.812 299.057C234.328 299.057 234.947 298.678 235.67 297.92C236.392 297.162 237.019 296.002 237.55 294.439C238.082 292.877 238.347 291.814 238.347 291.252C238.347 290.924 238.263 290.644 238.095 290.414C237.927 290.184 237.687 290.068 237.375 290.068C236.421 290.068 235.433 291.01 234.41 292.893C233.386 294.775 232.875 296.31 232.875 297.498Z"/>
<path d="M250.089 297.193L250.687 297.193C250.218 298.037 249.74 298.67 249.252 299.092C248.763 299.514 248.265 299.725 247.757 299.725C247.406 299.725 247.103 299.617 246.849 299.402C246.595 299.187 246.468 298.869 246.468 298.447C246.468 298.096 246.648 297.4 247.007 296.361L248.261 292.787C248.597 291.81 248.765 291.178 248.765 290.889C248.765 290.631 248.709 290.439 248.595 290.314C248.482 290.189 248.308 290.127 248.074 290.127C247.48 290.127 246.705 290.824 245.748 292.219C244.791 293.613 243.968 295.439 243.281 297.697L242.707 299.572L241.277 299.572L243.339 292.916C243.714 291.689 243.902 290.986 243.902 290.807C243.902 290.674 243.879 290.576 243.832 290.514C243.785 290.451 243.711 290.42 243.609 290.42C243.148 290.42 242.601 290.99 241.968 292.131L241.429 292.131C242.406 290.357 243.332 289.471 244.207 289.471C244.511 289.471 244.74 289.562 244.892 289.746C245.045 289.93 245.121 290.209 245.121 290.584C245.121 291.256 244.859 292.295 244.336 293.701C245.75 290.881 247.125 289.471 248.461 289.471C248.89 289.471 249.265 289.613 249.586 289.898C249.906 290.184 250.066 290.6 250.066 291.146C250.066 291.498 249.906 292.154 249.586 293.115L248.332 296.853C247.996 297.861 247.828 298.424 247.828 298.541C247.828 298.689 247.865 298.801 247.939 298.875C248.013 298.949 248.121 298.986 248.261 298.986C248.527 298.986 248.812 298.836 249.117 298.535C249.421 298.234 249.746 297.787 250.089 297.193Z"/>
<path d="M260.097 297.264L260.671 297.264C260.32 297.904 259.877 298.475 259.341 298.975C258.806 299.475 258.316 299.725 257.871 299.725C257.457 299.725 257.144 299.6 256.933 299.35C256.722 299.1 256.617 298.728 256.617 298.236C256.617 298.01 256.636 297.803 256.675 297.615C255.566 299.021 254.539 299.725 253.593 299.725C253.062 299.725 252.609 299.51 252.234 299.08C251.859 298.65 251.671 298.029 251.671 297.217C251.671 296.084 251.984 294.867 252.609 293.566C253.234 292.266 254.007 291.258 254.929 290.543C255.851 289.828 256.652 289.471 257.332 289.471C257.683 289.471 257.982 289.553 258.228 289.717C258.474 289.881 258.671 290.127 258.82 290.455L260.25 285.732C260.421 285.17 260.507 284.83 260.507 284.713C260.507 284.525 260.455 284.393 260.349 284.314C260.244 284.236 259.984 284.197 259.57 284.197L259.242 284.197L259.394 283.705C260.527 283.705 261.429 283.564 262.101 283.283L262.394 283.283L258.644 295.623C258.183 297.146 257.953 298.045 257.953 298.318C257.953 298.514 257.99 298.66 258.064 298.758C258.138 298.855 258.246 298.904 258.386 298.904C258.621 298.904 258.88 298.768 259.166 298.494C259.451 298.221 259.761 297.81 260.097 297.264ZM253.019 297.756C253.019 298.193 253.095 298.523 253.248 298.746C253.4 298.969 253.625 299.08 253.921 299.08C254.445 299.08 255.05 298.715 255.738 297.984C256.425 297.254 257.058 296.051 257.636 294.375C258.214 292.699 258.504 291.639 258.504 291.193C258.504 290.904 258.406 290.643 258.211 290.408C258.015 290.174 257.757 290.057 257.437 290.057C256.929 290.057 256.396 290.355 255.838 290.953C255.279 291.551 254.67 292.586 254.009 294.059C253.349 295.531 253.019 296.764 253.019 297.756Z"/>
<path d="M280.195 294.439L280.722 294.439L279.129 299.596L278.636 299.596C278.636 299.103 278.597 298.576 278.519 298.014C277.379 299.123 276.07 299.678 274.593 299.678C272.89 299.678 271.539 299.062 270.539 297.832C269.539 296.601 269.039 295.201 269.039 293.631C269.039 291.123 269.941 288.762 271.746 286.547C273.55 284.332 275.593 283.225 277.875 283.225C278.828 283.225 279.63 283.432 280.283 283.846C280.935 284.26 281.437 284.881 281.789 285.709C282.14 285.115 282.406 284.506 282.586 283.881L283.101 283.881L282.046 288.51L281.554 288.51C281.578 288.299 281.589 288.1 281.589 287.912C281.589 286.568 281.273 285.533 280.64 284.807C280.007 284.08 279.171 283.717 278.132 283.717C276.992 283.717 275.929 284.131 274.945 284.959C273.961 285.787 273.088 287.203 272.326 289.207C271.564 291.211 271.183 292.982 271.183 294.521C271.183 295.873 271.505 296.982 272.15 297.85C272.795 298.717 273.675 299.15 274.793 299.15C276.98 299.15 278.781 297.58 280.195 294.439Z"/>
<path d="M282.339 296.314C282.339 295.377 282.558 294.355 282.996 293.25C283.433 292.144 284.058 291.248 284.871 290.56C285.683 289.873 286.472 289.529 287.238 289.529C287.933 289.529 288.505 289.824 288.955 290.414C289.404 291.004 289.629 291.803 289.629 292.81C289.629 294.029 289.379 295.185 288.879 296.279C288.379 297.373 287.752 298.211 286.998 298.793C286.244 299.375 285.504 299.666 284.777 299.666C284.129 299.666 283.56 299.416 283.072 298.916C282.584 298.416 282.339 297.549 282.339 296.314ZM283.593 297.662C283.593 298.084 283.703 298.443 283.921 298.74C284.14 299.037 284.441 299.185 284.824 299.185C285.871 299.185 286.732 298.193 287.408 296.209C288.084 294.225 288.421 292.709 288.421 291.662C288.421 291.123 288.318 290.719 288.111 290.449C287.904 290.18 287.593 290.045 287.179 290.045C286.203 290.045 285.361 290.965 284.654 292.805C283.947 294.644 283.593 296.264 283.593 297.662Z"/>
<path d="M291.398 292.635L290.882 292.635C291.211 291.76 291.623 291.014 292.119 290.396C292.615 289.779 293.105 289.471 293.589 289.471C293.925 289.471 294.175 289.605 294.339 289.875C294.504 290.144 294.586 290.553 294.586 291.1C294.586 291.779 294.41 292.748 294.058 294.006C294.105 293.928 294.234 293.646 294.445 293.162C295.023 291.857 295.531 290.916 295.968 290.338C296.406 289.76 296.843 289.471 297.281 289.471C297.554 289.471 297.773 289.557 297.937 289.728C298.101 289.9 298.183 290.107 298.183 290.35C298.183 290.584 298.115 290.775 297.978 290.924C297.841 291.072 297.679 291.146 297.492 291.146C297.281 291.146 297.066 291.018 296.847 290.76C296.761 290.658 296.675 290.607 296.589 290.607C296.199 290.607 295.597 291.547 294.785 293.426C293.972 295.305 293.316 297.072 292.816 298.728L292.558 299.572L291.152 299.572L293.015 293.361C293.367 292.174 293.543 291.369 293.543 290.947C293.543 290.721 293.513 290.553 293.455 290.443C293.396 290.334 293.308 290.279 293.191 290.279C292.933 290.279 292.611 290.557 292.224 291.111C291.838 291.666 291.562 292.174 291.398 292.635Z"/>
<path d="M299.261 292.635L298.746 292.635C299.074 291.76 299.486 291.014 299.982 290.396C300.478 289.779 300.968 289.471 301.453 289.471C301.789 289.471 302.039 289.605 302.203 289.875C302.367 290.144 302.449 290.553 302.449 291.1C302.449 291.779 302.273 292.748 301.921 294.006C301.968 293.928 302.097 293.646 302.308 293.162C302.886 291.857 303.394 290.916 303.832 290.338C304.269 289.76 304.707 289.471 305.144 289.471C305.418 289.471 305.636 289.557 305.8 289.728C305.964 289.9 306.046 290.107 306.046 290.35C306.046 290.584 305.978 290.775 305.841 290.924C305.705 291.072 305.543 291.146 305.355 291.146C305.144 291.146 304.929 291.018 304.711 290.76C304.625 290.658 304.539 290.607 304.453 290.607C304.062 290.607 303.461 291.547 302.648 293.426C301.836 295.305 301.179 297.072 300.679 298.728L300.421 299.572L299.015 299.572L300.879 293.361C301.23 292.174 301.406 291.369 301.406 290.947C301.406 290.721 301.377 290.553 301.318 290.443C301.259 290.334 301.171 290.279 301.054 290.279C300.796 290.279 300.474 290.557 300.088 291.111C299.701 291.666 299.425 292.174 299.261 292.635Z"/>
<path d="M305.718 296.314C305.718 295.377 305.937 294.355 306.375 293.25C306.812 292.144 307.437 291.248 308.25 290.56C309.062 289.873 309.851 289.529 310.617 289.529C311.312 289.529 311.884 289.824 312.334 290.414C312.783 291.004 313.007 291.803 313.007 292.81C313.007 294.029 312.757 295.185 312.257 296.279C311.757 297.373 311.13 298.211 310.377 298.793C309.623 299.375 308.882 299.666 308.156 299.666C307.507 299.666 306.939 299.416 306.451 298.916C305.963 298.416 305.718 297.549 305.718 296.314ZM306.972 297.662C306.972 298.084 307.082 298.443 307.3 298.74C307.519 299.037 307.82 299.185 308.203 299.185C309.25 299.185 310.111 298.193 310.787 296.209C311.463 294.225 311.8 292.709 311.8 291.662C311.8 291.123 311.697 290.719 311.49 290.449C311.283 290.18 310.972 290.045 310.558 290.045C309.582 290.045 308.74 290.965 308.033 292.805C307.326 294.644 306.972 296.264 306.972 297.662Z"/>
<path d="M319.57 296.818C319.57 297.545 319.291 298.211 318.732 298.816C318.173 299.422 317.351 299.725 316.265 299.725C315.461 299.725 314.857 299.547 314.455 299.191C314.052 298.836 313.851 298.455 313.851 298.049C313.851 297.83 313.912 297.643 314.033 297.486C314.154 297.33 314.308 297.252 314.496 297.252C314.918 297.252 315.129 297.475 315.129 297.92C315.129 298.021 315.105 298.166 315.058 298.353C315.027 298.439 315.011 298.506 315.011 298.553C315.011 298.74 315.132 298.902 315.375 299.039C315.617 299.176 315.906 299.244 316.242 299.244C316.765 299.244 317.242 299.078 317.671 298.746C318.101 298.414 318.316 297.955 318.316 297.369C318.316 296.861 318.015 296.06 317.414 294.967C316.711 293.701 316.359 292.775 316.359 292.189C316.359 291.439 316.656 290.807 317.25 290.291C317.843 289.775 318.519 289.518 319.277 289.518C319.832 289.518 320.306 289.658 320.701 289.939C321.095 290.221 321.293 290.521 321.293 290.842C321.293 291.256 321.121 291.463 320.777 291.463C320.519 291.463 320.332 291.232 320.214 290.771C320.089 290.264 319.75 290.01 319.195 290.01C318.75 290.01 318.363 290.131 318.035 290.373C317.707 290.615 317.543 290.932 317.543 291.322C317.543 291.853 317.804 292.584 318.328 293.514C318.82 294.357 319.15 295.002 319.318 295.447C319.486 295.893 319.57 296.35 319.57 296.818Z"/>
<path d="M325.371 284.303C325.371 284.021 325.47 283.781 325.67 283.582C325.869 283.383 326.109 283.283 326.39 283.283C326.671 283.283 326.912 283.383 327.111 283.582C327.31 283.781 327.41 284.021 327.41 284.303C327.41 284.584 327.31 284.826 327.111 285.029C326.912 285.232 326.671 285.334 326.39 285.334C326.101 285.334 325.859 285.23 325.664 285.023C325.468 284.816 325.371 284.576 325.371 284.303ZM326.238 296.83L326.8 296.83C326.433 297.588 325.955 298.26 325.365 298.846C324.775 299.432 324.207 299.725 323.66 299.725C323.293 299.725 322.97 299.594 322.693 299.332C322.416 299.07 322.277 298.685 322.277 298.178C322.277 297.764 322.496 296.971 322.933 295.799L324.281 292.225C324.593 291.389 324.75 290.881 324.75 290.701C324.75 290.545 324.713 290.428 324.638 290.35C324.564 290.271 324.453 290.232 324.304 290.232C324 290.232 323.638 290.469 323.22 290.941C322.802 291.414 322.507 291.842 322.336 292.225L321.773 292.225C322.203 291.373 322.693 290.701 323.244 290.209C323.795 289.717 324.308 289.471 324.785 289.471C325.152 289.471 325.453 289.596 325.687 289.846C325.921 290.096 326.039 290.424 326.039 290.83C326.039 291.244 325.832 292.002 325.418 293.103L324.293 296.15C323.879 297.252 323.671 297.943 323.671 298.225C323.671 298.451 323.716 298.621 323.806 298.734C323.896 298.848 324.027 298.904 324.199 298.904C324.777 298.904 325.457 298.213 326.238 296.83Z"/>
<path d="M327.726 296.314C327.726 295.377 327.945 294.355 328.382 293.25C328.82 292.144 329.445 291.248 330.257 290.56C331.07 289.873 331.859 289.529 332.625 289.529C333.32 289.529 333.892 289.824 334.341 290.414C334.791 291.004 335.015 291.803 335.015 292.81C335.015 294.029 334.765 295.185 334.265 296.279C333.765 297.373 333.138 298.211 332.384 298.793C331.63 299.375 330.89 299.666 330.164 299.666C329.515 299.666 328.947 299.416 328.459 298.916C327.97 298.416 327.726 297.549 327.726 296.314ZM328.98 297.662C328.98 298.084 329.089 298.443 329.308 298.74C329.527 299.037 329.828 299.185 330.211 299.185C331.257 299.185 332.119 298.193 332.795 296.209C333.47 294.225 333.808 292.709 333.808 291.662C333.808 291.123 333.705 290.719 333.498 290.449C333.291 290.18 332.98 290.045 332.566 290.045C331.589 290.045 330.748 290.965 330.041 292.805C329.334 294.644 328.98 296.264 328.98 297.662Z"/>
<path d="M344.976 297.193L345.574 297.193C345.105 298.037 344.627 298.67 344.138 299.092C343.65 299.514 343.152 299.725 342.644 299.725C342.293 299.725 341.99 299.617 341.736 299.402C341.482 299.187 341.355 298.869 341.355 298.447C341.355 298.096 341.535 297.4 341.894 296.361L343.148 292.787C343.484 291.81 343.652 291.178 343.652 290.889C343.652 290.631 343.595 290.439 343.482 290.314C343.369 290.189 343.195 290.127 342.961 290.127C342.367 290.127 341.591 290.824 340.634 292.219C339.677 293.613 338.855 295.439 338.168 297.697L337.593 299.572L336.164 299.572L338.226 292.916C338.601 291.689 338.789 290.986 338.789 290.807C338.789 290.674 338.765 290.576 338.718 290.514C338.671 290.451 338.597 290.42 338.496 290.42C338.035 290.42 337.488 290.99 336.855 292.131L336.316 292.131C337.293 290.357 338.218 289.471 339.093 289.471C339.398 289.471 339.627 289.562 339.779 289.746C339.931 289.93 340.007 290.209 340.007 290.584C340.007 291.256 339.746 292.295 339.222 293.701C340.636 290.881 342.011 289.471 343.347 289.471C343.777 289.471 344.152 289.613 344.472 289.898C344.793 290.184 344.953 290.6 344.953 291.146C344.953 291.498 344.793 292.154 344.472 293.115L343.218 296.853C342.882 297.861 342.714 298.424 342.714 298.541C342.714 298.689 342.752 298.801 342.826 298.875C342.9 298.949 343.007 298.986 343.148 298.986C343.414 298.986 343.699 298.836 344.004 298.535C344.308 298.234 344.632 297.787 344.976 297.193Z"/>
<path d="M353.273 294.076L353.754 294.076C353.832 295.85 354.248 297.125 355.002 297.902C355.755 298.68 356.625 299.068 357.609 299.068C358.445 299.068 359.17 298.789 359.783 298.23C360.396 297.672 360.703 296.975 360.703 296.139C360.703 295.529 360.566 294.98 360.293 294.492C360.019 294.004 359.531 293.432 358.828 292.775C357.695 291.705 356.927 290.842 356.525 290.185C356.123 289.529 355.921 288.764 355.921 287.889C355.921 286.67 356.359 285.588 357.234 284.643C358.109 283.697 359.113 283.225 360.246 283.225C361.574 283.225 362.566 283.896 363.222 285.24C363.543 284.732 363.785 284.154 363.949 283.506L364.429 283.506L363.808 288.17L363.281 288.17C363.273 287.06 363.123 286.203 362.83 285.598C362.537 284.992 362.162 284.531 361.705 284.215C361.248 283.898 360.742 283.74 360.187 283.74C359.367 283.74 358.711 284.055 358.218 284.684C357.726 285.312 357.48 286.029 357.48 286.834C357.48 287.49 357.648 288.062 357.984 288.551C358.32 289.039 358.964 289.721 359.918 290.596C361.027 291.619 361.722 292.459 362.004 293.115C362.285 293.771 362.425 294.435 362.425 295.107C362.425 296.435 361.945 297.529 360.984 298.389C360.023 299.248 358.945 299.678 357.75 299.678C356.312 299.678 355.086 298.982 354.07 297.592C353.711 298.068 353.449 298.607 353.285 299.209L352.699 299.209L353.273 294.076Z"/>
<path d="M369.152 296.408L369.714 296.408C368.722 298.619 367.449 299.725 365.894 299.725C365.254 299.725 364.732 299.5 364.33 299.051C363.927 298.601 363.726 297.994 363.726 297.228C363.726 296.26 363.986 295.166 364.505 293.947C365.025 292.728 365.763 291.678 366.72 290.795C367.677 289.912 368.511 289.471 369.222 289.471C369.66 289.471 369.992 289.609 370.218 289.887C370.445 290.164 370.558 290.51 370.558 290.924C370.558 291.768 370.136 292.578 369.293 293.355C368.449 294.133 367.183 294.881 365.496 295.6C365.277 296.279 365.168 296.924 365.168 297.533C365.168 298.033 365.265 298.408 365.461 298.658C365.656 298.908 365.945 299.033 366.328 299.033C367.398 299.033 368.339 298.158 369.152 296.408ZM365.671 295.002C366.679 294.549 367.586 293.924 368.39 293.127C369.195 292.33 369.597 291.607 369.597 290.959C369.597 290.662 369.537 290.441 369.416 290.297C369.295 290.152 369.113 290.08 368.871 290.08C368.402 290.08 367.849 290.535 367.213 291.445C366.576 292.355 366.062 293.541 365.671 295.002Z"/>
<path d="M371.543 292.635L371.027 292.635C371.355 291.76 371.767 291.014 372.263 290.396C372.759 289.779 373.25 289.471 373.734 289.471C374.07 289.471 374.32 289.605 374.484 289.875C374.648 290.144 374.73 290.553 374.73 291.1C374.73 291.779 374.554 292.748 374.203 294.006C374.25 293.928 374.379 293.646 374.589 293.162C375.168 291.857 375.675 290.916 376.113 290.338C376.55 289.76 376.988 289.471 377.425 289.471C377.699 289.471 377.918 289.557 378.082 289.728C378.246 289.9 378.328 290.107 378.328 290.35C378.328 290.584 378.259 290.775 378.123 290.924C377.986 291.072 377.824 291.146 377.636 291.146C377.425 291.146 377.211 291.018 376.992 290.76C376.906 290.658 376.82 290.607 376.734 290.607C376.343 290.607 375.742 291.547 374.929 293.426C374.117 295.305 373.461 297.072 372.961 298.728L372.703 299.572L371.296 299.572L373.16 293.361C373.511 292.174 373.687 291.369 373.687 290.947C373.687 290.721 373.658 290.553 373.599 290.443C373.541 290.334 373.453 290.279 373.336 290.279C373.078 290.279 372.755 290.557 372.369 291.111C371.982 291.666 371.707 292.174 371.543 292.635Z"/>
<path d="M379.418 291.287L378.937 291.287C379.304 290.076 379.808 289.471 380.449 289.471C380.793 289.471 381.132 289.756 381.468 290.326C381.593 290.545 381.746 290.654 381.925 290.654C382.113 290.654 382.257 290.494 382.359 290.174C382.507 289.705 382.699 289.471 382.933 289.471C383.113 289.471 383.203 289.557 383.203 289.728C383.203 289.893 383.082 290.201 382.839 290.654C381.902 292.404 381.255 293.758 380.9 294.715C380.545 295.672 380.367 296.529 380.367 297.287C380.367 297.834 380.484 298.258 380.718 298.559C380.953 298.859 381.222 299.01 381.527 299.01C382.441 299.01 383.33 298.297 384.193 296.871C385.056 295.445 385.488 294.06 385.488 292.717C385.488 292.185 385.375 291.654 385.148 291.123C385.007 290.795 384.937 290.51 384.937 290.268C384.937 289.736 385.136 289.471 385.535 289.471C385.769 289.471 385.961 289.607 386.109 289.881C386.257 290.154 386.332 290.525 386.332 290.994C386.332 292.033 386.105 293.309 385.652 294.82C385.199 296.332 384.546 297.527 383.695 298.406C382.843 299.285 381.953 299.725 381.023 299.725C380.406 299.725 379.912 299.533 379.541 299.15C379.17 298.768 378.984 298.236 378.984 297.557C378.984 296.853 379.175 296.072 379.558 295.213C379.941 294.353 380.586 293.264 381.492 291.943C381.632 291.74 381.761 291.533 381.879 291.322C381.98 291.15 382.05 291.037 382.089 290.982C381.777 291.178 381.496 291.275 381.246 291.275C380.988 291.275 380.765 291.182 380.578 290.994C380.375 290.799 380.191 290.701 380.027 290.701C379.769 290.701 379.566 290.896 379.418 291.287Z"/>
<path d="M390.996 284.303C390.996 284.021 391.095 283.781 391.295 283.582C391.494 283.383 391.734 283.283 392.015 283.283C392.296 283.283 392.537 283.383 392.736 283.582C392.935 283.781 393.035 284.021 393.035 284.303C393.035 284.584 392.935 284.826 392.736 285.029C392.537 285.232 392.296 285.334 392.015 285.334C391.726 285.334 391.484 285.23 391.289 285.023C391.093 284.816 390.996 284.576 390.996 284.303ZM391.863 296.83L392.425 296.83C392.058 297.588 391.58 298.26 390.99 298.846C390.4 299.432 389.832 299.725 389.285 299.725C388.918 299.725 388.595 299.594 388.318 299.332C388.041 299.07 387.902 298.685 387.902 298.178C387.902 297.764 388.121 296.971 388.558 295.799L389.906 292.225C390.218 291.389 390.375 290.881 390.375 290.701C390.375 290.545 390.338 290.428 390.263 290.35C390.189 290.271 390.078 290.232 389.929 290.232C389.625 290.232 389.263 290.469 388.845 290.941C388.427 291.414 388.132 291.842 387.961 292.225L387.398 292.225C387.828 291.373 388.318 290.701 388.869 290.209C389.42 289.717 389.933 289.471 390.41 289.471C390.777 289.471 391.078 289.596 391.312 289.846C391.546 290.096 391.664 290.424 391.664 290.83C391.664 291.244 391.457 292.002 391.043 293.103L389.918 296.15C389.504 297.252 389.296 297.943 389.296 298.225C389.296 298.451 389.341 298.621 389.431 298.734C389.521 298.848 389.652 298.904 389.824 298.904C390.402 298.904 391.082 298.213 391.863 296.83Z"/>
<path d="M398.66 296.068L399.129 296.068C398.746 297.185 398.211 298.074 397.523 298.734C396.836 299.394 396.121 299.725 395.379 299.725C394.754 299.725 394.248 299.488 393.861 299.016C393.474 298.543 393.281 297.877 393.281 297.018C393.281 296.01 393.541 294.91 394.06 293.719C394.58 292.527 395.31 291.521 396.252 290.701C397.193 289.881 398.023 289.471 398.742 289.471C399.156 289.471 399.507 289.603 399.796 289.869C400.086 290.135 400.23 290.455 400.23 290.83C400.23 291.385 400.007 291.662 399.562 291.662C399.109 291.662 398.871 291.353 398.847 290.736C398.832 290.275 398.656 290.045 398.32 290.045C397.882 290.045 397.375 290.449 396.796 291.258C396.218 292.066 395.722 293.144 395.308 294.492C394.894 295.84 394.687 296.865 394.687 297.568C394.687 298.014 394.8 298.369 395.027 298.635C395.254 298.9 395.527 299.033 395.847 299.033C396.308 299.033 396.81 298.766 397.353 298.23C397.896 297.695 398.332 296.975 398.66 296.068Z"/>
<path d="M406.265 296.408L406.828 296.408C405.836 298.619 404.562 299.725 403.007 299.725C402.367 299.725 401.845 299.5 401.443 299.051C401.041 298.601 400.839 297.994 400.839 297.228C400.839 296.26 401.099 295.166 401.619 293.947C402.138 292.728 402.877 291.678 403.834 290.795C404.791 289.912 405.625 289.471 406.336 289.471C406.773 289.471 407.105 289.609 407.332 289.887C407.558 290.164 407.671 290.51 407.671 290.924C407.671 291.768 407.25 292.578 406.406 293.355C405.562 294.133 404.296 294.881 402.609 295.6C402.39 296.279 402.281 296.924 402.281 297.533C402.281 298.033 402.379 298.408 402.574 298.658C402.769 298.908 403.058 299.033 403.441 299.033C404.511 299.033 405.453 298.158 406.265 296.408ZM402.785 295.002C403.793 294.549 404.699 293.924 405.504 293.127C406.308 292.33 406.711 291.607 406.711 290.959C406.711 290.662 406.65 290.441 406.529 290.297C406.408 290.152 406.226 290.08 405.984 290.08C405.515 290.08 404.963 290.535 404.326 291.445C403.689 292.355 403.175 293.541 402.785 295.002Z"/>
<path d="M413.449 296.818C413.449 297.545 413.17 298.211 412.611 298.816C412.052 299.422 411.23 299.725 410.144 299.725C409.339 299.725 408.736 299.547 408.334 299.191C407.931 298.836 407.73 298.455 407.73 298.049C407.73 297.83 407.791 297.643 407.912 297.486C408.033 297.33 408.187 297.252 408.375 297.252C408.796 297.252 409.007 297.475 409.007 297.92C409.007 298.021 408.984 298.166 408.937 298.353C408.906 298.439 408.89 298.506 408.89 298.553C408.89 298.74 409.011 298.902 409.254 299.039C409.496 299.176 409.785 299.244 410.121 299.244C410.644 299.244 411.121 299.078 411.55 298.746C411.98 298.414 412.195 297.955 412.195 297.369C412.195 296.861 411.894 296.06 411.293 294.967C410.589 293.701 410.238 292.775 410.238 292.189C410.238 291.439 410.535 290.807 411.129 290.291C411.722 289.775 412.398 289.518 413.156 289.518C413.711 289.518 414.185 289.658 414.58 289.939C414.974 290.221 415.171 290.521 415.171 290.842C415.171 291.256 415 291.463 414.656 291.463C414.398 291.463 414.211 291.232 414.093 290.771C413.968 290.264 413.629 290.01 413.074 290.01C412.629 290.01 412.242 290.131 411.914 290.373C411.586 290.615 411.421 290.932 411.421 291.322C411.421 291.853 411.683 292.584 412.207 293.514C412.699 294.357 413.029 295.002 413.197 295.447C413.365 295.893 413.449 296.35 413.449 296.818Z"/>
<path d="M434.882 295.377L435.398 295.377L434.168 299.396L420.867 299.396L421.031 298.857L421.371 298.857C421.855 298.857 422.263 298.769 422.595 298.594C422.927 298.418 423.156 298.215 423.281 297.984C423.406 297.754 423.586 297.248 423.82 296.467L426.89 286.353C427.125 285.572 427.242 285.08 427.242 284.877C427.242 284.322 426.738 284.045 425.73 284.045L425.261 284.045L425.425 283.506L436.757 283.506L436.816 287.092L436.324 287.092C436.089 286.154 435.781 285.457 435.398 285C435.015 284.543 434.623 284.269 434.22 284.18C433.818 284.09 433 284.045 431.765 284.045L429.703 284.045L427.652 290.842L428.8 290.842C429.894 290.842 430.722 290.689 431.285 290.385C431.847 290.08 432.371 289.369 432.855 288.252L433.394 288.252L431.507 294.486L430.968 294.486C431.054 294.072 431.097 293.674 431.097 293.291C431.097 292.65 431.017 292.205 430.857 291.955C430.697 291.705 430.484 291.547 430.218 291.48C429.953 291.414 429.476 291.381 428.789 291.381L427.488 291.381L426 296.314C425.765 297.103 425.648 297.576 425.648 297.732C425.648 298.154 425.83 298.451 426.193 298.623C426.556 298.795 427.187 298.881 428.086 298.881L429.011 298.881C430.621 298.881 431.859 298.598 432.726 298.031C433.593 297.465 434.312 296.58 434.882 295.377Z"/>
<path d="M445.183 296.982L445.675 296.982C445.011 298.81 444.113 299.725 442.98 299.725C442.597 299.725 442.31 299.619 442.119 299.408C441.927 299.197 441.832 298.881 441.832 298.459C441.832 297.865 442.043 296.916 442.464 295.611C441.097 298.353 439.746 299.725 438.41 299.725C437.918 299.725 437.531 299.572 437.25 299.268C436.968 298.963 436.828 298.584 436.828 298.131C436.828 297.685 437.004 296.947 437.355 295.916L438.796 291.709C439.007 291.084 439.113 290.709 439.113 290.584C439.113 290.381 439.011 290.279 438.808 290.279C438.316 290.279 437.777 290.939 437.191 292.26L436.629 292.26C436.941 291.439 437.351 290.769 437.859 290.25C438.367 289.73 438.867 289.471 439.359 289.471C439.664 289.471 439.923 289.566 440.138 289.758C440.353 289.949 440.461 290.236 440.461 290.619C440.461 290.893 440.324 291.439 440.05 292.26L438.574 296.596C438.293 297.439 438.152 297.994 438.152 298.26C438.152 298.502 438.207 298.685 438.316 298.81C438.425 298.935 438.586 298.998 438.796 298.998C439.484 298.998 440.3 298.268 441.246 296.807C442.191 295.346 443.097 293.174 443.964 290.291L444.164 289.623L445.57 289.623L443.519 296.35C443.191 297.443 443.027 298.103 443.027 298.33C443.027 298.525 443.066 298.672 443.144 298.769C443.222 298.867 443.339 298.916 443.496 298.916C444.089 298.916 444.652 298.271 445.183 296.982Z"/>
<path d="M447.164 292.635L446.648 292.635C446.976 291.76 447.388 291.014 447.884 290.396C448.38 289.779 448.871 289.471 449.355 289.471C449.691 289.471 449.941 289.605 450.105 289.875C450.269 290.144 450.351 290.553 450.351 291.1C450.351 291.779 450.175 292.748 449.824 294.006C449.871 293.928 450 293.646 450.211 293.162C450.789 291.857 451.296 290.916 451.734 290.338C452.171 289.76 452.609 289.471 453.046 289.471C453.32 289.471 453.539 289.557 453.703 289.728C453.867 289.9 453.949 290.107 453.949 290.35C453.949 290.584 453.88 290.775 453.744 290.924C453.607 291.072 453.445 291.146 453.257 291.146C453.046 291.146 452.832 291.018 452.613 290.76C452.527 290.658 452.441 290.607 452.355 290.607C451.964 290.607 451.363 291.547 450.55 293.426C449.738 295.305 449.082 297.072 448.582 298.728L448.324 299.572L446.918 299.572L448.781 293.361C449.132 292.174 449.308 291.369 449.308 290.947C449.308 290.721 449.279 290.553 449.22 290.443C449.162 290.334 449.074 290.279 448.957 290.279C448.699 290.279 448.377 290.557 447.99 291.111C447.603 291.666 447.328 292.174 447.164 292.635Z"/>
<path d="M453.621 296.314C453.621 295.377 453.839 294.355 454.277 293.25C454.714 292.144 455.339 291.248 456.152 290.56C456.964 289.873 457.754 289.529 458.519 289.529C459.214 289.529 459.787 289.824 460.236 290.414C460.685 291.004 460.91 291.803 460.91 292.81C460.91 294.029 460.66 295.185 460.16 296.279C459.66 297.373 459.033 298.211 458.279 298.793C457.525 299.375 456.785 299.666 456.058 299.666C455.41 299.666 454.841 299.416 454.353 298.916C453.865 298.416 453.621 297.549 453.621 296.314ZM454.875 297.662C454.875 298.084 454.984 298.443 455.203 298.74C455.421 299.037 455.722 299.185 456.105 299.185C457.152 299.185 458.013 298.193 458.689 296.209C459.365 294.225 459.703 292.709 459.703 291.662C459.703 291.123 459.599 290.719 459.392 290.449C459.185 290.18 458.875 290.045 458.461 290.045C457.484 290.045 456.642 290.965 455.935 292.805C455.228 294.644 454.875 296.264 454.875 297.662Z"/>
<path d="M462.504 294.568L461.964 294.568L464.179 291.018C464.828 289.986 465.254 289.256 465.457 288.826C465.66 288.396 465.894 287.748 466.16 286.881L466.324 286.318L467.73 286.318L466.933 288.943L465.949 291.709C467.011 290.217 468.019 289.471 468.972 289.471C469.55 289.471 470.043 289.738 470.449 290.273C470.855 290.809 471.058 291.478 471.058 292.283C471.058 293.228 470.816 294.31 470.332 295.529C469.847 296.748 469.162 297.752 468.275 298.541C467.388 299.33 466.504 299.725 465.621 299.725C464.777 299.725 464.242 299.326 464.015 298.529L462.644 303.064C462.472 303.627 462.386 303.971 462.386 304.096C462.386 304.228 462.443 304.342 462.556 304.435C462.67 304.529 463 304.576 463.546 304.576L464.074 304.576L463.91 305.092L459.011 305.092L459.175 304.576L459.433 304.576C460.121 304.576 460.531 304.529 460.664 304.435C460.796 304.342 461 303.853 461.273 302.971L463.711 294.92C464.226 293.24 464.82 291.525 465.492 289.775C465.414 289.885 465.207 290.236 464.871 290.83C464.832 290.893 464.707 291.092 464.496 291.428L462.504 294.568ZM464.671 296.361C464.461 297.057 464.355 297.557 464.355 297.861C464.355 298.244 464.461 298.568 464.671 298.834C464.882 299.1 465.179 299.232 465.562 299.232C466.132 299.232 466.716 298.906 467.314 298.254C467.912 297.601 468.459 296.516 468.955 294.996C469.451 293.476 469.699 292.334 469.699 291.568C469.699 291.068 469.621 290.693 469.464 290.443C469.308 290.193 469.074 290.068 468.761 290.068C468.339 290.068 467.779 290.377 467.08 290.994C466.38 291.611 465.734 292.889 465.14 294.826L464.671 296.361Z"/>
<path d="M477.539 296.408L478.101 296.408C477.109 298.619 475.836 299.725 474.281 299.725C473.64 299.725 473.119 299.5 472.716 299.051C472.314 298.601 472.113 297.994 472.113 297.228C472.113 296.26 472.373 295.166 472.892 293.947C473.412 292.728 474.15 291.678 475.107 290.795C476.064 289.912 476.898 289.471 477.609 289.471C478.046 289.471 478.379 289.609 478.605 289.887C478.832 290.164 478.945 290.51 478.945 290.924C478.945 291.768 478.523 292.578 477.679 293.355C476.836 294.133 475.57 294.881 473.882 295.6C473.664 296.279 473.554 296.924 473.554 297.533C473.554 298.033 473.652 298.408 473.847 298.658C474.043 298.908 474.332 299.033 474.714 299.033C475.785 299.033 476.726 298.158 477.539 296.408ZM474.058 295.002C475.066 294.549 475.972 293.924 476.777 293.127C477.582 292.33 477.984 291.607 477.984 290.959C477.984 290.662 477.923 290.441 477.802 290.297C477.681 290.152 477.5 290.08 477.257 290.08C476.789 290.08 476.236 290.535 475.599 291.445C474.963 292.355 474.449 293.541 474.058 295.002Z"/>
</g>
</g>
</g>
</svg>
